#!OML:ASF F:\VICON\USERDATA\INSTALL\rory3\rory3.ASF
:FULLY-SPECIFIED
:DEGREES
345
root -8.76338 8.0215 10.2777 2.72079 -51.4358 -4.68941
lowerback 45.9865 8.43456 4.72773
upperback 12.1331 11.5535 3.77497
thorax -7.1844 4.86653 -3.11159
lowerneck -16.6317 -8.29689 -17.1571
upperneck 28.3174 -8.36085 5.15636
head 13.3519 -4.83931 3.46726
rclavicle 7.63333e-014 4.29375e-014
rhumerus 25.2821 -8.84039 -93.4838
rradius 13.4075
rwrist 35.769
rhand -52.9714 -4.70523
rfingers 7.12502
rthumb -25.4384 -33.0277
lclavicle 7.63333e-014 4.29375e-014
lhumerus -37.1731 -39.4481 90.0785
lradius 102.444
lwrist -28.245
lhand -61.3253 48.3332
lfingers 7.12502
lthumb -33.4126 75.2455
rfemur -120.496 -56.8461 48.6644
rtibia 148.925
rfoot -22.1622 29.059
rtoes -9.37945
lfemur -114.81 63.3883 -37.7667
ltibia 145.581
lfoot -37.1487 -35.5467
ltoes -31.4824
346
root -8.77202 7.92483 10.3024 2.4855 -51.5676 -4.70817
lowerback 45.7783 8.38745 4.75524
upperback 12.1879 11.5 3.77942
thorax -7.06862 4.85212 -3.08002
lowerneck -16.6358 -8.19709 -16.9897
upperneck 28.3198 -8.24072 5.06116
head 13.3217 -4.78312 3.42517
rclavicle 6.52014e-014 2.8625e-014
rhumerus 25.136 -8.86903 -93.64
rradius 13.2232
rwrist 36.5715
rhand -53.4068 -4.43732
rfingers 7.12502
rthumb -25.8554 -32.6997
lclavicle 6.52014e-014 2.8625e-014
lhumerus -37.6058 -38.923 90.233
lradius 102.758
lwrist -28.7082
lhand -61.5157 48.9642
lfingers 7.12502
lthumb -33.5936 75.8373
rfemur -122.375 -58.0071 49.5824
rtibia 149.63
rfoot -22.2031 30.1141
rtoes -10.7974
lfemur -118.072 65.2815 -40.6651
ltibia 146.401
lfoot -38.3139 -35.3393
ltoes -33.0176
347
root -8.78356 7.83026 10.323 2.32276 -51.6569 -4.83337
lowerback 45.4817 8.28893 4.78613
upperback 12.2806 11.3816 3.80312
thorax -6.89377 4.81092 -2.99506
lowerneck -16.6682 -8.05331 -16.88
upperneck 28.2759 -8.05559 5.03933
head 13.2763 -4.69438 3.43237
rclavicle 6.04305e-014 -1.33583e-013
rhumerus 25.0333 -8.83495 -93.9076
rradius 13.0056
rwrist 37.8389
rhand -54.0361 -4.98355
rfingers 7.12502
rthumb -26.4579 -33.1567
lclavicle 6.04305e-014 -1.33583e-013
lhumerus -37.9498 -38.2711 90.2739
lradius 102.997
lwrist -28.9813
lhand -61.5657 49.3019
lfingers 7.12502
lthumb -33.6411 76.1646
rfemur -124.259 -59.0957 50.7259
rtibia 150.33
rfoot -22.0443 31.016
rtoes -11.4861
lfemur -121.509 66.8976 -43.4834
ltibia 147.196
lfoot -38.4012 -36.0728
ltoes -32.929
348
root -8.7992 7.73869 10.3381 2.09074 -51.7437 -4.87934
lowerback 45.1939 8.30027 4.66893
upperback 12.3947 11.3402 3.92605
thorax -6.73844 4.79769 -2.76819
lowerneck -16.7079 -7.96138 -16.9566
upperneck 28.202 -7.91342 5.10845
head 13.2418 -4.631 3.49655
rclavicle -4.77083e-015 -3.49861e-014
rhumerus 24.9575 -8.83921 -93.9756
rradius 12.7423
rwrist 39.35
rhand -54.8754 -5.76475
rfingers 7.12502
rthumb -27.261 -33.8144
lclavicle -4.77083e-015 -3.49861e-014
lhumerus -38.1502 -37.6317 90.428
lradius 103.126
lwrist -29.3166
lhand -61.6536 51.2046
lfingers 7.12502
lthumb -33.7247 78.0491
rfemur -126.35 -60.134 52.1764
rtibia 151.039
rfoot -21.6797 31.747
rtoes -11.2651
lfemur -125.223 68.3701 -46.5666
ltibia 147.964
lfoot -38.1363 -37.0198
ltoes -32.4972
349
root -8.81604 7.64721 10.3526 1.68053 -51.7751 -4.66597
lowerback 44.9416 8.34613 4.4499
upperback 12.4731 11.3046 4.03205
thorax -6.64527 4.78392 -2.51944
lowerneck -16.8231 -7.93327 -17.1052
upperneck 28.2683 -7.83279 5.18468
head 13.2952 -4.60352 3.56329
rclavicle -1.06549e-013 1.00187e-013
rhumerus 24.6553 -7.64588 -93.2361
rradius 12.8237
rwrist 38.7621
rhand -55.1057 -6.19262
rfingers 7.12502
rthumb -27.4812 -34.2075
lclavicle -1.06549e-013 1.00187e-013
lhumerus -38.3619 -37.0725 90.6305
lradius 103.265
lwrist -29.567
lhand -61.7494 52.5664
lfingers 7.12502
lthumb -33.8157 79.3909
rfemur -128.954 -61.1691 53.8199
rtibia 151.812
rfoot -21.111 32.4251
rtoes -10.8712
lfemur -129.286 69.6749 -50.3829
ltibia 148.738
lfoot -39.033 -36.6115
ltoes -33.7333
350
root -8.83403 7.55243 10.3702 1.29016 -51.7356 -4.44868
lowerback 44.6698 8.32836 4.30913
upperback 12.4764 11.23 4.04545
thorax -6.59974 4.75687 -2.39325
lowerneck -16.8213 -7.88196 -17.0553
upperneck 28.3119 -7.80023 5.25224
head 13.3075 -4.57848 3.58939
rclavicle -4.77083e-014 1.90833e-014
rhumerus 24.228 -6.23804 -92.4644
rradius 13.0412
rwrist 37.4546
rhand -55.0414 -4.62862
rfingers 7.12502
rthumb -27.4198 -32.6533
lclavicle -4.77083e-014 1.90833e-014
lhumerus -38.6489 -36.7229 90.7048
lradius 103.393
lwrist -29.5746
lhand -61.6349 52.1394
lfingers 7.12502
lthumb -33.7069 78.9877
rfemur -131.93 -62.0753 55.74
rtibia 152.633
rfoot -20.4101 32.9168
rtoes -10.2911
lfemur -133.938 70.899 -55.0111
ltibia 149.488
lfoot -40.7455 -35.2152
ltoes -35.9301
351
root -8.85489 7.46425 10.3915 0.856495 -51.798 -4.25718
lowerback 44.4195 8.34349 4.10966
upperback 12.4451 11.172 4.03011
thorax -6.601 4.73477 -2.28007
lowerneck -16.8429 -7.7795 -16.8736
upperneck 28.4838 -7.71369 5.24822
head 13.3601 -4.5292 3.57716
rclavicle 6.83819e-014 2.06736e-014
rhumerus 23.7112 -4.84717 -91.8441
rradius 13.3192
rwrist 36.2607
rhand -55.0749 -2.56568
rfingers 7.12502
rthumb -27.4518 -30.5852
lclavicle 6.83819e-014 2.06736e-014
lhumerus -39.0214 -36.3622 90.7497
lradius 103.459
lwrist -29.5916
lhand -61.5854 52.1977
lfingers 7.12502
lthumb -33.6598 79.0563
rfemur -134.697 -62.8706 57.6325
rtibia 153.391
rfoot -19.7396 33.2685
rtoes -9.51532
lfemur -138.384 72.0805 -58.9324
ltibia 150.135
lfoot -39.7846 -37.3217
ltoes -33.5074
352
root -8.87508 7.3837 10.4162 0.404958 -51.9036 -4.0841
lowerback 44.1359 8.29691 3.96824
upperback 12.4105 11.0575 3.95364
thorax -6.5758 4.69123 -2.23245
lowerneck -16.7484 -7.61192 -16.6507
upperneck 28.5865 -7.56481 5.23766
head 13.3479 -4.44966 3.56914
rclavicle 5.08889e-014 -3.18055e-014
rhumerus 23.1759 -3.56982 -91.4444
rradius 13.5094
rwrist 35.528
rhand -55.4028 -1.66664
rfingers 7.12502
rthumb -27.7654 -29.6361
lclavicle 5.08889e-014 -3.18055e-014
lhumerus -39.4028 -35.8937 90.6999
lradius 103.478
lwrist -29.725
lhand -61.552 52.6744
lfingers 7.12502
lthumb -33.6281 79.5399
rfemur -136.917 -63.5484 59.1186
rtibia 154.031
rfoot -19.4416 33.4094
rtoes -9.93949
lfemur -142.358 73.0954 -61.9345
ltibia 150.746
lfoot -37.1996 -41.0271
ltoes -28.4493
353
root -8.89488 7.29794 10.4398 -0.137433 -51.8637 -3.74054
lowerback 43.7432 8.174 3.76126
upperback 12.4083 10.8203 3.85831
thorax -6.4948 4.59544 -2.11499
lowerneck -16.7367 -7.4361 -16.3991
upperneck 28.7498 -7.37465 5.14977
head 13.3691 -4.3594 3.53139
rclavicle 7.15625e-014 4.29375e-014
rhumerus 22.7245 -2.2653 -91.1256
rradius 13.6523
rwrist 34.9414
rhand -55.3138 -1.57311
rfingers 7.12502
rthumb -27.6803 -29.5562
lclavicle 7.15625e-014 4.29375e-014
lhumerus -39.7565 -35.3272 90.6015
lradius 103.548
lwrist -29.9404
lhand -61.7048 52.8697
lfingers 7.12502
lthumb -33.7733 79.7035
rfemur -139.539 -64.2619 60.7245
rtibia 154.706
rfoot -19.183 33.5787
rtoes -10.6884
lfemur -147.064 73.9344 -66.3085
ltibia 151.397
lfoot -37.9632 -41.216
ltoes -29.1516
354
root -8.91695 7.21064 10.4611 -0.527552 -51.7591 -3.49491
lowerback 43.2617 8.05149 3.57438
upperback 12.4182 10.5964 3.80133
thorax -6.37769 4.50735 -1.96609
lowerneck -16.8384 -7.2954 -16.1482
upperneck 28.9811 -7.20546 5.03078
head 13.4459 -4.28211 3.47531
rclavicle 6.52014e-014 -1.44715e-013
rhumerus 22.4025 -1.63325 -91.1485
rradius 13.6988
rwrist 35.1482
rhand -54.8409 -2.12316
rfingers 7.12502
rthumb -27.228 -30.178
lclavicle 6.52014e-014 -1.44715e-013
lhumerus -40.0117 -34.8096 90.529
lradius 103.676
lwrist -30.0504
lhand -61.8244 53.1493
lfingers 7.12502
lthumb -33.8869 79.9581
rfemur -142.678 -65.0761 62.6928
rtibia 155.462
rfoot -18.3905 34.1837
rtoes -9.85861
lfemur -153.472 74.6943 -72.64
ltibia 152.08
lfoot -40.9535 -39.0747
ltoes -33.3069
